<svg width="192" height="192" viewBox="0 0 192 192" fill="none" xmlns="http://www.w3.org/2000/svg">
  <rect width="192" height="192" rx="24" fill="#667eea"/>
  <path d="M48 64h96c6.6 0 12 5.4 12 12v40c0 6.6-5.4 12-12 12H48c-6.6 0-12-5.4-12-12V76c0-6.6 5.4-12 12-12z" fill="white"/>
  <path d="M96 84c-6.6 0-12 5.4-12 12s5.4 12 12 12 12-5.4 12-12-5.4-12-12-12z" fill="#667eea"/>
  <path d="M72 120h48v8H72v-8z" fill="#667eea"/>
  <text x="96" y="160" text-anchor="middle" font-family="Arial, sans-serif" font-size="32" font-weight="bold" fill="white">M</text>
</svg>
